<svg xmlns="http://www.w3.org/2000/svg" xmlns:xlink="http://www.w3.org/1999/xlink" width="500" zoomAndPan="magnify" viewBox="0 0 375 374.999991" height="500" preserveAspectRatio="xMidYMid meet" version="1.0"><defs><clipPath id="ac8dfcc601"><path d="M 177 166.867188 L 198 166.867188 L 198 185 L 177 185 Z M 177 166.867188 " clip-rule="nonzero"/></clipPath><clipPath id="8707c3edf4"><path d="M 112.5 231 L 130 231 L 130 252 L 112.5 252 Z M 112.5 231 " clip-rule="nonzero"/></clipPath><clipPath id="447adf6faa"><path d="M 177 299 L 198 299 L 198 316.867188 L 177 316.867188 Z M 177 299 " clip-rule="nonzero"/></clipPath><clipPath id="9a4100ffe1"><path d="M 245 231 L 262.5 231 L 262.5 252 L 245 252 Z M 245 231 " clip-rule="nonzero"/></clipPath></defs><path fill="#f4bc33" d="M 238.570312 241.871094 C 238.570312 243.542969 238.488281 245.210938 238.324219 246.875 C 238.160156 248.542969 237.914062 250.195312 237.585938 251.832031 C 237.261719 253.472656 236.855469 255.09375 236.371094 256.695312 C 235.882812 258.296875 235.320312 259.867188 234.679688 261.414062 C 234.042969 262.957031 233.328125 264.46875 232.539062 265.941406 C 231.75 267.417969 230.890625 268.851562 229.960938 270.242188 C 229.035156 271.632812 228.039062 272.972656 226.976562 274.265625 C 225.917969 275.558594 224.792969 276.796875 223.613281 277.980469 C 222.429688 279.164062 221.191406 280.285156 219.898438 281.34375 C 218.605469 282.40625 217.265625 283.402344 215.875 284.332031 C 214.484375 285.257812 213.050781 286.117188 211.574219 286.90625 C 210.101562 287.695312 208.589844 288.410156 207.046875 289.050781 C 205.5 289.6875 203.929688 290.25 202.328125 290.738281 C 200.726562 291.222656 199.105469 291.628906 197.464844 291.953125 C 195.824219 292.28125 194.175781 292.527344 192.507812 292.691406 C 190.84375 292.855469 189.175781 292.9375 187.503906 292.9375 C 185.832031 292.9375 184.164062 292.855469 182.5 292.691406 C 180.835938 292.527344 179.183594 292.28125 177.542969 291.953125 C 175.902344 291.628906 174.28125 291.222656 172.679688 290.738281 C 171.082031 290.25 169.507812 289.6875 167.960938 289.050781 C 166.417969 288.410156 164.90625 287.695312 163.433594 286.90625 C 161.957031 286.117188 160.523438 285.257812 159.132812 284.332031 C 157.742188 283.402344 156.402344 282.40625 155.109375 281.34375 C 153.816406 280.285156 152.578125 279.164062 151.394531 277.980469 C 150.214844 276.796875 149.09375 275.558594 148.03125 274.265625 C 146.96875 272.972656 145.976562 271.632812 145.046875 270.242188 C 144.117188 268.851562 143.257812 267.417969 142.46875 265.941406 C 141.679688 264.46875 140.96875 262.957031 140.328125 261.414062 C 139.6875 259.867188 139.125 258.296875 138.640625 256.695312 C 138.152344 255.09375 137.746094 253.472656 137.421875 251.832031 C 137.09375 250.195312 136.851562 248.542969 136.6875 246.875 C 136.523438 245.210938 136.441406 243.542969 136.441406 241.871094 C 136.441406 240.199219 136.523438 238.53125 136.6875 236.867188 C 136.851562 235.203125 137.09375 233.550781 137.421875 231.910156 C 137.746094 230.269531 138.152344 228.648438 138.640625 227.046875 C 139.125 225.449219 139.6875 223.875 140.328125 222.332031 C 140.96875 220.785156 141.679688 219.273438 142.46875 217.800781 C 143.257812 216.324219 144.117188 214.890625 145.046875 213.5 C 145.976562 212.113281 146.96875 210.769531 148.03125 209.476562 C 149.09375 208.183594 150.214844 206.945312 151.394531 205.765625 C 152.578125 204.582031 153.816406 203.460938 155.109375 202.398438 C 156.402344 201.335938 157.742188 200.34375 159.132812 199.414062 C 160.523438 198.484375 161.957031 197.625 163.433594 196.835938 C 164.90625 196.046875 166.417969 195.335938 167.960938 194.695312 C 169.507812 194.054688 171.082031 193.492188 172.679688 193.007812 C 174.28125 192.519531 175.902344 192.113281 177.542969 191.789062 C 179.183594 191.460938 180.835938 191.21875 182.5 191.054688 C 184.164062 190.890625 185.832031 190.808594 187.503906 190.808594 C 189.175781 190.808594 190.84375 190.890625 192.507812 191.054688 C 194.175781 191.21875 195.824219 191.460938 197.464844 191.789062 C 199.105469 192.113281 200.726562 192.519531 202.328125 193.007812 C 203.929688 193.492188 205.5 194.054688 207.046875 194.695312 C 208.589844 195.335938 210.101562 196.046875 211.574219 196.835938 C 213.050781 197.625 214.484375 198.484375 215.875 199.414062 C 217.265625 200.34375 218.605469 201.335938 219.898438 202.398438 C 221.191406 203.460938 222.429688 204.582031 223.613281 205.765625 C 224.792969 206.945312 225.917969 208.183594 226.976562 209.476562 C 228.039062 210.769531 229.035156 212.113281 229.960938 213.5 C 230.890625 214.890625 231.75 216.324219 232.539062 217.800781 C 233.328125 219.273438 234.042969 220.785156 234.679688 222.332031 C 235.320312 223.875 235.882812 225.449219 236.371094 227.046875 C 236.855469 228.648438 237.261719 230.269531 237.585938 231.910156 C 237.914062 233.550781 238.160156 235.203125 238.324219 236.867188 C 238.488281 238.53125 238.570312 240.199219 238.570312 241.871094 Z M 238.570312 241.871094 " fill-opacity="1" fill-rule="nonzero"/><g clip-path="url(#ac8dfcc601)"><path fill="#f4bc33" d="M 177.421875 184.332031 L 187.503906 166.867188 L 197.585938 184.332031 Z M 177.421875 184.332031 " fill-opacity="1" fill-rule="nonzero"/></g><path fill="#f4bc33" d="M 150.003906 197.082031 L 150 176.917969 L 167.464844 187 Z M 150.003906 197.082031 " fill-opacity="1" fill-rule="nonzero"/><path fill="#f4bc33" d="M 132.632812 221.832031 L 122.546875 204.371094 L 142.714844 204.371094 Z M 132.632812 221.832031 " fill-opacity="1" fill-rule="nonzero"/><g clip-path="url(#8707c3edf4)"><path fill="#f4bc33" d="M 129.964844 251.953125 L 112.5 241.875 L 129.964844 231.792969 Z M 129.964844 251.953125 " fill-opacity="1" fill-rule="nonzero"/></g><path fill="#f4bc33" d="M 142.714844 279.371094 L 122.546875 279.378906 L 132.632812 261.914062 Z M 142.714844 279.371094 " fill-opacity="1" fill-rule="nonzero"/><path fill="#f4bc33" d="M 167.464844 296.742188 L 150.003906 306.828125 L 150.003906 286.664062 Z M 167.464844 296.742188 " fill-opacity="1" fill-rule="nonzero"/><g clip-path="url(#447adf6faa)"><path fill="#f4bc33" d="M 197.585938 299.414062 L 187.503906 316.878906 L 177.425781 299.414062 Z M 197.585938 299.414062 " fill-opacity="1" fill-rule="nonzero"/></g><path fill="#f4bc33" d="M 225.003906 286.664062 L 225.007812 306.828125 L 207.542969 296.742188 Z M 225.003906 286.664062 " fill-opacity="1" fill-rule="nonzero"/><path fill="#f4bc33" d="M 242.375 261.914062 L 252.464844 279.375 L 232.292969 279.371094 Z M 242.375 261.914062 " fill-opacity="1" fill-rule="nonzero"/><g clip-path="url(#9a4100ffe1)"><path fill="#f4bc33" d="M 245.042969 231.792969 L 262.511719 241.871094 L 245.042969 251.953125 Z M 245.042969 231.792969 " fill-opacity="1" fill-rule="nonzero"/></g><path fill="#f4bc33" d="M 232.292969 204.371094 L 252.460938 204.367188 L 242.375 221.832031 Z M 232.292969 204.371094 " fill-opacity="1" fill-rule="nonzero"/><path fill="#f4bc33" d="M 207.542969 187.003906 L 225.003906 176.914062 L 225.003906 197.082031 Z M 207.542969 187.003906 " fill-opacity="1" fill-rule="nonzero"/></svg>